<svg id="Layer_1" data-name="Layer 1" xmlns="http://www.w3.org/2000/svg" viewBox="0 0 2296.87 4080.41"><defs><style>.cls-1{fill:#fff;}</style></defs><path class="cls-1" d="M1185.57,3002.59a51.14,51.14,0,0,0-8.62,17.23,65.86,65.86,0,0,0-2.88,17.44c-.39,11.7.75,23.45,2.08,35.31,2.46,23.75,4.23,47.45,5.88,71.12,3,47.33,5.15,94.57,6.86,141.79s2.91,94.44,3.28,141.71l-.08,35.47c-.19,11.7.35,23.48.59,35.39.06,11.89,0,23.87-2.25,35.79a122.68,122.68,0,0,1-4.55,17.8,96,96,0,0,1-8.55,17.49c-1.28-6-2.15-11.93-4.21-17.87a147.46,147.46,0,0,0-6.06-17.74c-4.79-11.81-10.19-23.59-15.71-35.44-5.35-11.84-10.71-23.81-14.63-35.84s-7.62-23.83-10.81-35.75a635.76,635.76,0,0,1-21.35-142.9,619.81,619.81,0,0,1,11.37-142.17,560.84,560.84,0,0,1,19-70.51c4.12-11.71,8.5-23.55,16-35.16a109.31,109.31,0,0,1,13.58-17.17A102.82,102.82,0,0,1,1185.57,3002.59Z"/><path class="cls-1" d="M1221.93,3253.19c-58.22,9.52-117,15.7-176.15,19.56a1677.26,1677.26,0,0,1-178,1.09,1240.16,1240.16,0,0,1-177.94-21.09l-22.11-4.37c-7.36-1.52-14.65-3.42-22-5.12l-22-5.26-21.8-6.16c-7.26-2.1-14.57-4.05-21.8-6.29l-21.56-7.21c-7.21-2.54-14.36-4.54-21.64-7.53s-14.56-5.65-21.76-8.72c-57.4-25-110.22-62.92-151.84-111.72a390.81,390.81,0,0,1-53-80.32,410.12,410.12,0,0,1-31.92-91c-13.76-62.27-15.92-126-8.92-188.34a738.17,738.17,0,0,1,45-181.25,871.86,871.86,0,0,1,85-165.46c8.65-12.91,17.07-26,26.69-38.27l14-18.7c4.68-6.23,9.89-12.06,14.82-18.11l15-18,15.93-17.27c5.35-5.68,10.59-11.64,16.07-17.07l16.53-16.08c21.67-21.89,45-41.74,68.09-62l35.79-28.72,9-7.15,9.22-6.76,18.45-13.51a1721.57,1721.57,0,0,1,152.65-98.91c104.33-60.79,212.51-111.61,319.57-161.51l160-73.92c55.74-25.94,110.15-47.84,163.95-71,53.75-22.83,106.73-46.08,158-71.45s101-52.73,146.66-83.84c22.86-15.46,44.92-31.72,64.83-49.38s38.49-36.17,53.86-56c15.2-19.88,27.4-40.82,35.39-62.41a184,184,0,0,0,11.56-66.64c-.73-48-17.93-91.84-49.89-129.38s-76.3-68.56-124.81-94.19c-48.71-25.66-101.64-46.39-155.9-64.72s-110.09-34.41-166.53-49.57-113.53-29.73-170.9-45.49c-28.7-8-57.46-16.13-86.29-25.34s-57.65-19.33-86.44-31.88c-7.17-3.08-14.44-6.52-21.51-9.94-6.89-3.54-13.85-6.92-20.67-10.6-13.66-7.34-27.16-15-40.33-23.26A580.37,580.37,0,0,1,927,787.49c-47.18-41-88.14-91.89-112.7-151.17s-31.77-123.57-25.75-185,24.23-121,51.62-175.07c27.18-54.06,61.83-103.29,100-148.79C978.67,82.15,1020.25,40.09,1063.52,0,1024.9,44.57,987,89.69,953.45,137.69c-33.78,47.69-63.57,98-85.23,151.28-21.46,53.07-35,109.08-36.68,165.1s8.56,111.46,32.55,159.87c23.63,48.52,60.52,90.23,104.06,124a547.81,547.81,0,0,0,69.28,45.76c12.12,6.82,24.58,13.11,37.17,19.12,6.29,3,12.74,5.76,19.08,8.66,6.33,2.69,12.51,5.27,19,7.69,25.72,9.82,53,17.92,80.6,25.56s55.85,14.41,84.22,21c56.82,13.19,114.5,25.29,172.3,38.89s115.89,28,173.79,45.52,115.58,38.53,171.94,66.27c28.12,14,55.94,29.66,82.6,48.46a419.23,419.23,0,0,1,74.94,66.27,350,350,0,0,1,31.3,41.69,299.87,299.87,0,0,1,40.16,98.33,335.2,335.2,0,0,1,6.49,52.48,283.55,283.55,0,0,1-16.51,106.65c-12.07,33.8-29.82,64.32-50.1,91.4-20.44,27-43.5,50.51-67.46,72.09s-49.24,40.71-74.94,58.53-52.14,33.91-78.76,49.2-53.62,29.35-80.7,43c-54.23,27-109.06,51.41-163.7,74.71s-109.48,45.18-160.64,68.8q-80.81,37.42-161.21,73.54c-107.08,48.2-212.65,97.24-313.07,153.21a1617.74,1617.74,0,0,0-145.54,90.47L701,2217.53l-8.72,6.13-8.42,6.47-33.77,25.76c-21.63,18.1-43.71,35.81-64,55.32l-15.54,14.31c-5.11,4.8-9.7,9.84-14.58,14.74l-14.44,14.81-13.68,15.6c-4.5,5.26-9.29,10.27-13.58,15.72l-12.9,16.33c-8.86,10.7-16.71,22.18-24.86,33.46a781.84,781.84,0,0,0-81.11,145.67c-21.53,51.26-37.77,104.74-46.17,159.26s-8.44,110,.52,163.38A328.33,328.33,0,0,0,413.2,3050c32.55,42.83,75.93,77.81,125.09,102.93,6.17,3.1,12.48,5.94,18.73,8.94s13.09,5.49,19.61,8.27l19.87,8.12c6.69,2.55,13.49,4.84,20.24,7.28l20.31,7.2,20.64,6.36c6.89,2.07,13.74,4.35,20.69,6.26l20.94,5.56c55.92,14.69,113.28,24.79,171.12,32.36a1689.6,1689.6,0,0,0,175,12.72C1104.17,3257.79,1163,3256.32,1221.93,3253.19Z"/><path class="cls-1" d="M1028.91,3154.61c93.48-5.62,187.53.21,280,2.24q34.69.92,69.13.94,34.41.26,68.38-.93c45.24-1.7,89.8-5.49,132.23-13.36a465.87,465.87,0,0,0,61.22-15.69,333,333,0,0,0,55.56-23.72c17.44-9.51,33.39-20.28,46.86-32.28a165.53,165.53,0,0,0,33.15-38.6c16.89-27.5,22.51-58.52,20.25-92.63-2.45-34.07-13.83-70.39-30.9-105.07a458.78,458.78,0,0,0-64.75-98.42,628.24,628.24,0,0,0-88-82.77c-32.36-25.36-67.87-48-105-69-36.92-21.37-76-40.61-116.1-58.88-80.42-36.24-165.1-68.26-251.57-100.86-43.29-16.19-87-32.67-131-49.89-22-8.58-44.12-17.35-66.21-26.55-21.89-9.05-43.66-18.25-65.6-27.73-87.61-38.09-174.55-79.69-259.94-130.51-42.68-25.64-84.92-53.57-126.6-87.66-20.76-17.23-41.38-36.08-61.49-58.69a365.91,365.91,0,0,1-29.43-37.7A260.31,260.31,0,0,1,373,1958.45a207.55,207.55,0,0,1-15.11-64,182.42,182.42,0,0,1,9.8-72.49,197.6,197.6,0,0,1,32.49-58.12,250.31,250.31,0,0,1,39.3-39c26.55-21.18,52.54-35.43,77.87-47.54,6.4-3,12.59-5.7,19.08-8.46,6.81-2.89,13.42-5.44,20-7.87,13.08-4.84,25.76-9,38.26-12.72,49.82-14.8,97-24.67,143.71-34.06,46.73-8.94,92.78-16.72,138.35-24.74l68-12.08q33.86-5.92,67.29-12.3c44.58-8.48,88.43-18.29,131.33-29,42.78-10.94,84.48-23.9,122.73-40.22,38.1-16,73.18-36.46,95.12-61.39,11.07-12.35,18.7-25.52,22.72-40.52.56-1.95.89-3.63,1.35-5.9l1.22-7.43c.68-5,1.41-10,1.81-15a304,304,0,0,0,1.36-30.42c0-41-9.54-82.86-25.31-123.56-16-40.62-38.35-80-64.93-117a715.05,715.05,0,0,0-90.89-104.24c41.18,22.5,79.09,51.24,114.39,83.43,35,32.55,67,69.42,93,111.75,26.19,42.06,45.61,90.14,54.48,141.76a321,321,0,0,1,4.34,39.16c.43,6.59.49,13.2.56,19.82l-.13,9.94c-.14,3.49-.33,7.61-.75,11.39-2.82,31-14.58,61.52-30.93,86.6s-36.7,45.65-57.62,63.13-43,32.1-65.19,45.17c-44.58,25.84-90.27,45.34-135.87,62.83s-91.56,31.68-137.21,45.25q-34.26,10.08-68.39,19.44c-22.76,6.2-45.5,12-68.1,17.87-45.21,11.66-90.06,23.07-133.87,34.93-43.72,11.57-87,23.69-125.44,37.86-9.54,3.55-18.75,7.21-27.23,11-4.22,1.88-8.34,3.78-12.11,5.7-4.08,2.05-8.4,4.29-12.4,6.45-16.2,8.56-30.53,18-39.83,26.45a55.93,55.93,0,0,0-9.5,10.49c-1.73,2.56-1.48,3.46-1,2.61a13.58,13.58,0,0,0,1.25-3.83c.19-.77.46.34,2,3.23,2.93,5.81,10.69,17.42,21.93,29,11.16,11.76,25.19,24.06,40.55,36,30.75,24.14,66.69,46.89,104,68.42,75,43.12,156.16,81.43,238.79,117.6,20.66,9,41.63,18,62.63,26.8l62.86,25.94L1212.2,2238c43.35,17.33,87,35.1,130.83,54.12,43.83,18.87,87.62,39,131.17,61.22s86.91,45.92,129.28,73c42.18,27.27,83.46,57.35,122.27,91.75,19.52,17,38.18,35.36,56.18,54.44,8.9,9.72,17.67,19.49,26,29.83,8.43,10.06,16.75,20.71,24.58,31.54,31.37,43.29,57.42,90,76.91,140.65,18.9,50.75,31.57,106.05,29.95,165.08-.84,29.4-5.66,59.67-15.77,88.74a270.8,270.8,0,0,1-44,80.51,287.16,287.16,0,0,1-64.9,59.64c-23.71,15.9-48.52,28-73.39,37.56a479.92,479.92,0,0,1-75.92,21.86,542,542,0,0,1-75.78,9.1c-49.91,2.57-98.52.06-146.06-5.44q-35.67-4-70.69-9.55-35-5.74-69.57-12.36C1211,3192.08,1121.06,3170.06,1028.91,3154.61Z"/><path class="cls-1" d="M7.79,3846.7v-30.3H158v30.3Zm55.88,110V3829.58H102V3956.7Z"/><path class="cls-1" d="M220.53,3956.7H182.11V3816.4h38.42Zm-18.77-87.49H314.94v31.06H201.76Zm135.13,87.49H298.36V3816.4h38.53Z"/><path class="cls-1" d="M369.71,3956.7V3816.4h37.66v140.3Zm.33-110.55V3816.4H502v29.75Zm0,110.55V3927H504v29.75Zm19.21-56.76v-28.43H499.69v28.43Z"/><path class="cls-1" d="M579.16,3956.7V3816.4h37.65v140.3Zm.33-110.55V3816.4H711.43v29.75Zm0,110.55V3927H713.41v29.75Zm19.21-56.76v-28.43H709.13v28.43Z"/><path class="cls-1" d="M741.73,3956.7V3816.4h37.43v79l.11,16v45.23Zm27.77-40.18V3887h52.7q13,0,19.15-5t6.09-14.76v-1.54q0-9.87-6-14.82t-19.21-4.94H769.28V3816.4h54.45q32.06,0,47.26,13t15.2,36.33v1.65q0,23.05-15.2,36.11t-47.26,13.07Z"/><path class="cls-1" d="M948.76,3956.7H910.34V3816.4h38.42ZM930,3869.21h113.18v31.06H930Zm135.13,87.49h-38.53V3816.4h38.53Z"/><path class="cls-1" d="M1176,3961.2q-41.38,0-63-19.32t-21.57-54.45v-1.76q0-35.13,21.62-54.45t62.9-19.32q41.38,0,63,19.32t21.57,54.45v1.76q0,35.13-21.63,54.45T1176,3961.2Zm0-31.07q22,0,33.26-11.36t11.31-31.23v-2q0-19.86-11.31-31.17T1176,3843.08q-22.07,0-33.31,11.31t-11.26,31.17v2q0,19.86,11.26,31.23T1176,3930.13Z"/><path class="cls-1" d="M1287,3956.7V3816.4h38.2v140.3Zm28.43,0v-31.18h46.66q19.76,0,30-10.15t10.21-28v-2q0-17.78-10.21-27.83t-30-10h-47V3816.4h47.86q38.86,0,58.84,17.84t20,51v2q0,33.48-20,51.48t-58.84,18Z"/><path class="cls-1" d="M1512,3956.7l8.12-140.3h54l33,86.4h2.19l33.37-86.4h53.9l8.23,140.3h-37.76l-2.52-54.23-2.09-46.88h-2.41l-33.15,84.09h-37.11l-33.26-84.09h-2.63l-1.87,46.88-2.31,54.23Z"/><path class="cls-1" d="M1810.8,3961.2q-38.85,0-58.07-17.84t-19.21-52.86v-74.1h38.53v74q0,19,9.55,29t29.2,10q19.77,0,29.31-10t9.55-29v-74h38.42v74.1q0,35-19,52.86T1810.8,3961.2Z"/><path class="cls-1" d="M1982.27,3960.32a176.42,176.42,0,0,1-25.58-1.76,180.94,180.94,0,0,1-21.9-4.5q-9.93-2.74-17.4-5.6l-4.06-34.69a211.11,211.11,0,0,0,30.85,10.38,148.49,148.49,0,0,0,38,4.77q18.33,0,25.74-3.13t7.41-10.37v-.33a9.51,9.51,0,0,0-3.35-7.79q-3.35-2.75-11.69-4.45t-23.16-3.13q-22.29-2.29-36.72-6.91t-21.3-13.4q-6.85-8.77-6.86-23.71v-.55q0-21.18,16.74-31.78t50.11-10.59q21.53,0,37,3.35a154.38,154.38,0,0,1,26.56,8l4.28,31.61a166.49,166.49,0,0,0-29.69-9.11,164.15,164.15,0,0,0-34.41-3.51q-12.63,0-19.43,1.54t-9.39,4.22a9.1,9.1,0,0,0-2.58,6.53v.11a9.25,9.25,0,0,0,2.75,6.81q2.74,2.74,10.86,4.66a190.64,190.64,0,0,0,23.93,3.46q22,2.21,36.61,6.32t22,12.73q7.31,8.61,7.3,24.09v1q0,23.72-17.84,34.74T1982.27,3960.32Z"/><path class="cls-1" d="M2119.05,3956.7h-38.53V3816.4h38.53Z"/><path class="cls-1" d="M2229.7,3961.31q-41.84,0-63-19.6t-21.19-54.61v-1.87q0-34.35,20.91-53.84t62.3-19.49a131.58,131.58,0,0,1,21,1.59,125.36,125.36,0,0,1,17.89,4.23,92.92,92.92,0,0,1,14.66,6l3.29,31.94a160.93,160.93,0,0,0-23-8.45,104,104,0,0,0-28.7-3.62q-24.15,0-36,11T2186,3885.12v1.76q0,19.65,12,30.85t38.14,11.19a100,100,0,0,0,27.78-3.62,173,173,0,0,0,22.94-8.34l-3.19,32.49a100.28,100.28,0,0,1-14.6,5.93,126.41,126.41,0,0,1-17.94,4.28A129.93,129.93,0,0,1,2229.7,3961.31Z"/></svg>