<svg id="Layer_1" data-name="Layer 1" xmlns="http://www.w3.org/2000/svg" viewBox="0 0 1080 1080"><defs><style>.cls-1{fill:#fff;}</style></defs><rect x="-3.34" y="-0.5" width="1080" height="1080"/><path class="cls-1" d="M539.82,605.69a4.44,4.44,0,0,0-.73,1.46,6,6,0,0,0-.25,1.49,21.81,21.81,0,0,0,.18,3c.21,2,.36,4.05.5,6.07.26,4,.44,8.06.59,12.09s.25,8.05.28,12.08v3c0,1,0,2,0,3a15.73,15.73,0,0,1-.19,3.06,10.48,10.48,0,0,1-.39,1.51,8,8,0,0,1-.73,1.5,11.71,11.71,0,0,0-.36-1.53,12.78,12.78,0,0,0-.51-1.51c-.41-1-.87-2-1.34-3a28.5,28.5,0,0,1-1.25-3.06c-.34-1-.65-2-.92-3a54.06,54.06,0,0,1-1.82-12.18,52.72,52.72,0,0,1,1-12.13,47.36,47.36,0,0,1,1.62-6,13.52,13.52,0,0,1,1.36-3,10,10,0,0,1,1.16-1.46A8.74,8.74,0,0,1,539.82,605.69Z"/><path class="cls-1" d="M542.93,627.06c-5,.81-10,1.33-15,1.66a142.32,142.32,0,0,1-15.18.1,106.72,106.72,0,0,1-15.18-1.8l-1.88-.37c-.63-.13-1.25-.3-1.88-.44l-1.87-.45-1.86-.53c-.62-.17-1.24-.34-1.86-.53l-1.84-.62c-.61-.21-1.22-.38-1.84-.64s-1.25-.48-1.86-.74a35.93,35.93,0,0,1-13-9.53,33.4,33.4,0,0,1-4.51-6.85,34.91,34.91,0,0,1-2.73-7.76,49.33,49.33,0,0,1-.76-16.06A63.32,63.32,0,0,1,465.55,567a74,74,0,0,1,7.25-14.1c.74-1.11,1.46-2.22,2.28-3.27l1.19-1.59c.4-.53.85-1,1.27-1.55l1.28-1.53,1.36-1.47c.45-.49.9-1,1.37-1.46L483,540.7c1.84-1.87,3.84-3.56,5.8-5.29l3.05-2.45.77-.61.79-.57,1.57-1.16a146.66,146.66,0,0,1,13-8.43c8.89-5.18,18.12-9.52,27.25-13.77l13.64-6.31c4.75-2.21,9.39-4.07,14-6.05s9.1-3.93,13.47-6.09a106.59,106.59,0,0,0,12.51-7.15,54.7,54.7,0,0,0,5.53-4.21,34.94,34.94,0,0,0,4.59-4.78,20.45,20.45,0,0,0,3-5.32,15.8,15.8,0,0,0,1-5.68,17.13,17.13,0,0,0-4.25-11,35.91,35.91,0,0,0-10.64-8,91.91,91.91,0,0,0-13.3-5.51c-4.63-1.58-9.39-2.94-14.2-4.23s-9.68-2.54-14.57-3.88c-2.45-.68-4.9-1.38-7.36-2.16a75.66,75.66,0,0,1-7.37-2.72c-.61-.26-1.23-.56-1.83-.85s-1.19-.59-1.77-.9c-1.16-.63-2.31-1.28-3.44-2a50.76,50.76,0,0,1-6.42-4.73,35.19,35.19,0,0,1-9.61-12.89,32.88,32.88,0,0,1-2.2-15.78,42.48,42.48,0,0,1,4.4-14.93,65.86,65.86,0,0,1,8.53-12.69,127,127,0,0,1,10.52-10.86A143.66,143.66,0,0,0,520,361.39a65,65,0,0,0-7.27,12.9,41,41,0,0,0-3.12,14.08A28.69,28.69,0,0,0,512.41,402a30.47,30.47,0,0,0,8.88,10.57,46,46,0,0,0,5.9,3.9c1,.59,2.1,1.12,3.17,1.63.54.26,1.09.5,1.63.74s1.07.45,1.62.66c2.19.84,4.52,1.53,6.87,2.18s4.76,1.23,7.18,1.79c4.85,1.13,9.77,2.16,14.7,3.32s9.88,2.38,14.82,3.88a98.53,98.53,0,0,1,14.66,5.65,54.8,54.8,0,0,1,7,4.13,35.73,35.73,0,0,1,6.39,5.66,28.63,28.63,0,0,1,2.67,3.55,27.38,27.38,0,0,1,2.08,4,26.66,26.66,0,0,1,1.34,4.35,28.58,28.58,0,0,1,.56,4.48,24.15,24.15,0,0,1-1.41,9.09,29.69,29.69,0,0,1-4.27,7.8,45,45,0,0,1-5.75,6.15,63.77,63.77,0,0,1-6.4,5c-2.19,1.52-4.44,2.89-6.71,4.19s-4.57,2.5-6.88,3.67c-4.63,2.3-9.3,4.38-14,6.37s-9.34,3.85-13.7,5.87q-6.89,3.18-13.75,6.27C530,521,521,525.21,512.4,530A138.63,138.63,0,0,0,500,537.7l-1.49,1-.74.52-.72.56L494.16,542c-1.84,1.55-3.73,3.06-5.46,4.72L487.38,548c-.44.41-.83.84-1.24,1.26l-1.24,1.26-1.16,1.33c-.39.45-.79.88-1.16,1.34l-1.1,1.39c-.76.92-1.42,1.89-2.12,2.86a66.77,66.77,0,0,0-6.92,12.42,58,58,0,0,0-3.93,13.58,44,44,0,0,0,0,13.93,29.2,29.2,0,0,0,1.94,6.53,29.51,29.51,0,0,0,3.47,5.88,31.25,31.25,0,0,0,10.67,8.78l1.6.76c.52.26,1.11.47,1.67.71l1.69.69c.57.22,1.15.41,1.73.62l1.73.61,1.76.55c.59.17,1.17.37,1.77.53l1.78.47A115.15,115.15,0,0,0,513,626.21a145.7,145.7,0,0,0,14.93,1.09C532.88,627.45,537.9,627.32,542.93,627.06Z"/><path class="cls-1" d="M526.47,618.65c8-.48,16,0,23.87.19,2,0,3.94.08,5.9.08s3.9,0,5.83-.08a77.51,77.51,0,0,0,11.27-1.14,38.71,38.71,0,0,0,5.22-1.34,27.69,27.69,0,0,0,4.74-2,21.53,21.53,0,0,0,4-2.75,14.11,14.11,0,0,0,2.82-3.29,13.05,13.05,0,0,0,1.73-7.9,24.92,24.92,0,0,0-2.63-9,39.37,39.37,0,0,0-5.52-8.39,53.71,53.71,0,0,0-7.51-7.06,71.81,71.81,0,0,0-9-5.89c-3.15-1.82-6.48-3.46-9.9-5-6.86-3.09-14.08-5.82-21.45-8.6q-5.53-2.07-11.17-4.25c-1.88-.74-3.76-1.48-5.65-2.27s-3.72-1.55-5.59-2.36a195.46,195.46,0,0,1-22.17-11.13A89.45,89.45,0,0,1,480.51,529a47.69,47.69,0,0,1-5.25-5,32.13,32.13,0,0,1-2.51-3.22,22.43,22.43,0,0,1-2.22-4.12,17.79,17.79,0,0,1-1.29-5.46,15.69,15.69,0,0,1,.84-6.18,16.54,16.54,0,0,1,2.77-4.95,20.6,20.6,0,0,1,3.35-3.33,33,33,0,0,1,6.64-4.06l1.63-.72c.58-.25,1.14-.46,1.7-.67,1.12-.41,2.2-.76,3.26-1.09,4.25-1.26,8.27-2.1,12.26-2.9s7.91-1.43,11.8-2.11l5.79-1c1.93-.34,3.84-.68,5.74-1,3.8-.72,7.54-1.56,11.2-2.48a72.38,72.38,0,0,0,10.46-3.42A22.72,22.72,0,0,0,554.8,472a8.34,8.34,0,0,0,1.93-3.46,4.61,4.61,0,0,0,.12-.5l.1-.63c.06-.43.12-.85.16-1.28a24.81,24.81,0,0,0,.11-2.59A29.28,29.28,0,0,0,555.06,453a46.39,46.39,0,0,0-5.53-10,60.24,60.24,0,0,0-7.75-8.89,50.89,50.89,0,0,1,9.75,7.11,45.84,45.84,0,0,1,7.93,9.53,33.74,33.74,0,0,1,4.64,12.09,26.45,26.45,0,0,1,.37,3.34c0,.56,0,1.12,0,1.69v.85c0,.29,0,.64-.06,1a16.6,16.6,0,0,1-2.64,7.38,24.78,24.78,0,0,1-4.91,5.39,43,43,0,0,1-5.56,3.85,80.21,80.21,0,0,1-11.59,5.35c-3.89,1.5-7.81,2.71-11.7,3.86q-2.92.87-5.83,1.66c-1.94.53-3.88,1-5.81,1.53-3.85,1-7.68,2-11.41,3s-7.42,2-10.7,3.23c-.81.3-1.6.62-2.32.94l-1,.48-1.05.55a17.37,17.37,0,0,0-3.4,2.26,5.14,5.14,0,0,0-.81.89c-.15.22-.13.3-.08.23a1.6,1.6,0,0,0,.11-.33c0-.06,0,0,.16.28a11.67,11.67,0,0,0,1.87,2.47,31.82,31.82,0,0,0,3.46,3.07,75.19,75.19,0,0,0,8.87,5.83,207,207,0,0,0,20.36,10c1.76.77,3.55,1.54,5.34,2.28l5.36,2.22,11,4.38c3.69,1.48,7.42,3,11.15,4.62s7.47,3.33,11.19,5.22,7.41,3.91,11,6.22a85.77,85.77,0,0,1,10.43,7.83c1.66,1.44,3.25,3,4.79,4.64.76.83,1.5,1.66,2.21,2.54s1.43,1.77,2.1,2.69a53,53,0,0,1,6.56,12,37.29,37.29,0,0,1,2.55,14.08,25.3,25.3,0,0,1-1.34,7.57,22.93,22.93,0,0,1-3.76,6.86,24.55,24.55,0,0,1-5.53,5.09,32.21,32.21,0,0,1-6.26,3.2,41.26,41.26,0,0,1-6.48,1.87,46.6,46.6,0,0,1-6.46.77,74.36,74.36,0,0,1-12.45-.46q-3-.35-6-.82c-2-.32-4-.68-5.93-1C542,621.84,534.32,620,526.47,618.65Z"/><path class="cls-1" d="M439.39,677.67v-2.59H452.2v2.59Zm4.77,9.37V676.2h3.26V687Z"/><path class="cls-1" d="M457.53,687h-3.27v-12h3.27Zm-1.6-7.46h9.65v2.65h-9.65ZM467.46,687h-3.29v-12h3.29Z"/><path class="cls-1" d="M470.26,687v-12h3.21v12Zm0-9.42v-2.54h11.26v2.54Zm0,9.42v-2.53H481.7V687Zm1.64-4.84v-2.42h9.42v2.42Z"/><path class="cls-1" d="M488.12,687v-12h3.21v12Zm0-9.42v-2.54h11.25v2.54Zm0,9.42v-2.53h11.42V687Zm1.64-4.84v-2.42h9.42v2.42Z"/><path class="cls-1" d="M502,687v-12h3.19v12Zm2.37-3.42V681.1h4.49a2.5,2.5,0,0,0,1.63-.43,1.51,1.51,0,0,0,.52-1.25v-.14a1.54,1.54,0,0,0-.51-1.26,2.6,2.6,0,0,0-1.64-.42h-4.51v-2.52H509a6.1,6.1,0,0,1,4,1.11,3.85,3.85,0,0,1,1.3,3.09v.15a3.84,3.84,0,0,1-1.3,3.07,6,6,0,0,1-4,1.12Z"/><path class="cls-1" d="M519.63,687h-3.27v-12h3.27Zm-1.6-7.46h9.65v2.65H518ZM529.55,687h-3.28v-12h3.28Z"/><path class="cls-1" d="M539,687.43a7.81,7.81,0,0,1-5.37-1.65,5.89,5.89,0,0,1-1.84-4.64V681a6,6,0,0,1,1.84-4.65,9.61,9.61,0,0,1,10.74,0,6,6,0,0,1,1.84,4.65v.15a5.9,5.9,0,0,1-1.85,4.64A7.8,7.8,0,0,1,539,687.43Zm0-2.65a3.79,3.79,0,0,0,2.83-1,3.58,3.58,0,0,0,1-2.66V681a3.57,3.57,0,0,0-1-2.66,4.67,4.67,0,0,0-5.67,0,3.6,3.6,0,0,0-1,2.66v.17a3.62,3.62,0,0,0,1,2.66A3.8,3.8,0,0,0,539,684.78Z"/><path class="cls-1" d="M548.47,687v-12h3.26v12Zm2.43,0v-2.65h4a3.47,3.47,0,0,0,2.56-.87,3.22,3.22,0,0,0,.87-2.39V681a3.17,3.17,0,0,0-.87-2.37,3.5,3.5,0,0,0-2.56-.86h-4v-2.65H555a7.35,7.35,0,0,1,5,1.52,5.56,5.56,0,0,1,1.7,4.35v.17a5.62,5.62,0,0,1-1.7,4.39,7.3,7.3,0,0,1-5,1.53Z"/><path class="cls-1" d="M567.66,687l.69-12H573l2.82,7.37H576l2.85-7.37h4.59l.71,12h-3.22l-.22-4.62-.18-4h-.2l-2.83,7.17H574.3l-2.84-7.17h-.22l-.16,4-.2,4.62Z"/><path class="cls-1" d="M593.14,687.43a7.07,7.07,0,0,1-4.95-1.52,5.88,5.88,0,0,1-1.64-4.51v-6.32h3.29v6.31a3.48,3.48,0,0,0,.81,2.48,4.09,4.09,0,0,0,5,0,3.48,3.48,0,0,0,.81-2.48v-6.31h3.28v6.32a5.91,5.91,0,0,1-1.62,4.51A7.07,7.07,0,0,1,593.14,687.43Z"/><path class="cls-1" d="M607.76,687.35a15.54,15.54,0,0,1-4-.53c-.56-.16-1.06-.32-1.48-.48l-.35-3a17.84,17.84,0,0,0,2.63.89,12.73,12.73,0,0,0,3.24.41,6.23,6.23,0,0,0,2.2-.27.91.91,0,0,0,.63-.89v0a.83.83,0,0,0-.29-.67,2.5,2.5,0,0,0-1-.38c-.48-.09-1.14-.18-2-.26a16.68,16.68,0,0,1-3.13-.59,3.7,3.7,0,0,1-1.82-1.15,3.17,3.17,0,0,1-.58-2v0a3,3,0,0,1,1.43-2.71,8,8,0,0,1,4.27-.91,15.09,15.09,0,0,1,3.15.29,12.58,12.58,0,0,1,2.27.68l.36,2.69a13.71,13.71,0,0,0-2.53-.77,13.93,13.93,0,0,0-2.93-.3,7.86,7.86,0,0,0-1.66.13,1.49,1.49,0,0,0-.8.36.75.75,0,0,0-.22.55h0a.77.77,0,0,0,.24.58,1.94,1.94,0,0,0,.92.4,16.51,16.51,0,0,0,2,.3,18.54,18.54,0,0,1,3.12.53,3.74,3.74,0,0,1,1.88,1.09,3.13,3.13,0,0,1,.62,2.06v.08a3.22,3.22,0,0,1-1.52,3A9.07,9.07,0,0,1,607.76,687.35Z"/><path class="cls-1" d="M619.42,687h-3.28v-12h3.28Z"/><path class="cls-1" d="M628.86,687.44a7.66,7.66,0,0,1-5.37-1.67,6,6,0,0,1-1.81-4.66V681a6,6,0,0,1,1.78-4.59,7.54,7.54,0,0,1,5.32-1.66,11.16,11.16,0,0,1,1.79.13,10.28,10.28,0,0,1,1.52.36,7.23,7.23,0,0,1,1.25.52l.28,2.72a14.37,14.37,0,0,0-2-.72,9.06,9.06,0,0,0-2.45-.31,4.42,4.42,0,0,0-3.07.94,3.4,3.4,0,0,0-1,2.6v.15a3.43,3.43,0,0,0,1,2.63,4.64,4.64,0,0,0,3.25,1,8.72,8.72,0,0,0,2.37-.31,17.15,17.15,0,0,0,2-.71l-.28,2.77a9.13,9.13,0,0,1-1.24.5,10.61,10.61,0,0,1-3.36.51Z"/></svg>